<svg width="77" height="76" viewBox="0 0 77 76" fill="none" xmlns="http://www.w3.org/2000/svg">
<path d="M75.9814 33.5028L75.9224 31.0069C75.8814 26.9607 75.7123 23.6449 75.392 20.5673C75.2408 18.9709 75.0153 17.5436 74.7078 16.147L74.7514 16.3853C74.5694 15.2604 74.1415 14.2584 73.5265 13.4026L73.5419 13.4231C73.3087 13.1361 73.0012 12.9182 72.645 12.8029L72.6322 12.8004C71.8532 12.4775 70.9486 12.2904 70.0031 12.2904C68.6424 12.2904 67.3739 12.6774 66.2977 13.3462L66.3284 13.3282C64.5398 14.7146 63.3406 16.7876 63.1228 19.1426L63.1202 19.1759L61.8159 32.0089C61.0676 31.6117 60.1784 31.3785 59.2354 31.3785C57.0291 31.3785 55.1226 32.6546 54.2104 34.5099L54.195 34.5432L50.2103 41.444L42.6432 48.6677C42.5126 48.7907 42.3998 48.9342 42.3101 49.0905L42.305 49.0982L40.173 52.7882L39.0711 52.1527C39.0301 52.1296 38.9814 52.1296 38.9379 52.1091C38.7021 51.9938 38.4228 51.9246 38.1281 51.9246C37.8334 51.9246 37.5567 51.9912 37.3081 52.1142L37.3184 52.1091C37.2748 52.1296 37.2261 52.1296 37.1826 52.1527L36.0807 52.7882L33.9512 49.0982C33.8564 48.9342 33.7437 48.7907 33.6156 48.6677L26.0485 41.444L22.0638 34.5432C21.2848 33.0954 19.9805 32.0166 18.4122 31.5502L18.3687 31.5399C17.9587 31.4272 17.4872 31.3631 17.0003 31.3631C16.0624 31.3631 15.1809 31.604 14.4147 32.0268L14.4429 32.014L13.1412 19.2092C12.9285 16.8081 11.7267 14.7248 9.94831 13.3462L9.93037 13.3334C8.88487 12.6825 7.61387 12.2956 6.25319 12.2956C5.30506 12.2956 4.40306 12.4826 3.57794 12.8234L3.62406 12.8055C3.25506 12.9234 2.945 13.1412 2.71694 13.4256L2.71437 13.4282C2.09937 14.2917 1.66375 15.3244 1.48694 16.4417L1.48181 16.4827C1.223 17.623 1.00519 19.0196 0.874498 20.4417L0.864248 20.5776C0.546498 23.6449 0.379935 26.9607 0.33381 31.0121C0.32356 31.8526 0.297935 32.6931 0.274873 33.5336C0.226185 34.3382 0.197998 35.2812 0.197998 36.2293C0.197998 38.0256 0.297935 39.7963 0.495248 41.5388L0.474748 41.3261C1.39212 47.6837 4.53119 53.1777 9.06937 57.1009L9.10268 57.1291C11.7882 59.2559 14.1534 61.5776 16.2546 64.1247L16.3187 64.2041L14.7889 65.0882C14.2097 65.4264 13.8279 66.0466 13.8279 66.7538C13.8279 67.1074 13.9227 67.4406 14.0893 67.725L14.0842 67.7147L18.197 74.8411C18.4507 75.2767 18.8607 75.5996 19.3501 75.7328L19.3629 75.7354C19.509 75.7764 19.6781 75.7994 19.8524 75.7994C19.8549 75.7994 19.8575 75.7994 19.8626 75.7994C19.8652 75.7994 19.8652 75.7994 19.8677 75.7994C20.2188 75.7994 20.5494 75.7046 20.8338 75.5381L20.8236 75.5432L38.1281 65.5494L55.4429 75.5432C55.7197 75.7021 56.0502 75.7969 56.4039 75.7994C57.1111 75.7969 57.7313 75.4151 58.0644 74.8487L58.0695 74.8385L62.1823 67.7122C62.3412 67.4354 62.436 67.1049 62.436 66.7512C62.436 66.5744 62.4129 66.4053 62.3694 66.2439L62.3719 66.2567C62.2361 65.7544 61.9133 65.3419 61.4853 65.0907L61.4751 65.0856L59.9427 64.2016C62.1285 61.5571 64.5142 59.2201 67.1228 57.1521L67.2202 57.0778C71.7558 53.1316 74.8744 47.6555 75.7712 41.4619L75.7866 41.3236C75.9609 39.7989 76.0608 38.0307 76.0608 36.2421C76.0608 35.2786 76.0326 34.3254 75.9762 33.3772L75.9814 33.5079V33.5028ZM11.5396 54.1617C7.71381 50.7997 5.07956 46.1641 4.29543 40.9238L4.28006 40.8034C4.12375 39.4273 4.03662 37.8334 4.03662 36.2191C4.03662 35.3145 4.06481 34.4151 4.11862 33.5259L4.1135 33.6489C4.14169 32.7827 4.16731 31.9166 4.175 31.0505C4.21856 27.1196 4.38 23.9165 4.68494 20.9645C4.81306 19.5449 5.01294 18.2687 5.28969 17.0208L5.25125 17.2258C5.31787 16.9286 5.39987 16.5647 5.49981 16.27C5.75606 16.1906 6.04819 16.1444 6.35312 16.1444C6.881 16.1444 7.37812 16.2828 7.80606 16.5262L7.79069 16.5186C8.64656 17.2796 9.21287 18.3482 9.31281 19.55V19.5679L11.1424 37.5567C11.1732 37.8411 11.2603 38.1025 11.3961 38.3306L11.391 38.3203L19.6371 52.6011C19.9728 53.1931 20.5981 53.5877 21.3156 53.5877C22.3764 53.5877 23.2374 52.7267 23.2374 51.6658C23.2374 51.3019 23.1349 50.9611 22.9607 50.6716L22.9658 50.6792L15.7524 38.1845C14.9426 36.7777 15.4218 35.8321 16.1419 35.417C16.8491 34.9942 17.9177 35.0506 18.7351 36.4625L22.8556 43.6016C22.9504 43.7656 23.0632 43.9066 23.1939 44.0321L30.7609 51.2584L32.7546 54.7075L19.6551 62.2694C17.2514 59.2277 14.5839 56.5627 11.6396 54.2386L11.5396 54.1617ZM55.6915 71.2484L39.0942 61.6698C39.066 61.6544 39.0327 61.6544 39.0045 61.6416C38.8354 61.5519 38.6381 61.4853 38.4279 61.452L38.4177 61.4494L38.2793 61.4392C38.2332 61.4341 38.1794 61.4341 38.123 61.4341C37.9744 61.4341 37.8283 61.452 37.6874 61.4853L37.7002 61.4827C37.6387 61.4981 37.5823 61.5212 37.5234 61.5391C37.3927 61.5699 37.2774 61.6083 37.1672 61.6544L37.18 61.6493L20.5571 71.2484L18.3661 67.4559L38.123 56.0502L57.8799 67.4559L55.6915 71.2484ZM71.9736 40.8059C71.1818 46.1411 68.5706 50.7536 64.7986 54.0925L64.7756 54.113C61.7057 56.5294 59.0202 59.2098 56.6729 62.1695L56.5961 62.2694L43.4991 54.7101L45.4927 51.2609L53.0598 44.0347C53.1905 43.9117 53.3032 43.7682 53.3955 43.6119L53.4006 43.6042L57.5237 36.4651C57.8056 35.8987 58.2873 35.4657 58.8741 35.253L58.8921 35.2479C59.0125 35.2171 59.1483 35.1992 59.2918 35.1992C59.5942 35.1992 59.8786 35.2812 60.1221 35.4221L60.1144 35.417C60.4834 35.6271 60.7576 35.9705 60.8729 36.3779L60.8754 36.3882C60.9011 36.5214 60.9164 36.6777 60.9164 36.8341C60.9164 37.3363 60.7627 37.8027 60.4988 38.1896L60.5039 38.1819L53.2879 50.6767C53.1264 50.9534 53.0316 51.284 53.0316 51.6376C53.0316 52.3474 53.4134 52.965 53.9849 53.3007L53.9951 53.3058C54.2693 53.4596 54.5947 53.5518 54.9432 53.5518C55.6531 53.5518 56.2732 53.1751 56.6166 52.6088L56.6217 52.6011L64.8704 38.3203C65.0011 38.0999 65.0882 37.8411 65.1138 37.5618V37.5541L66.9409 19.5474C67.0485 18.3354 67.6148 17.2745 68.463 16.5237L68.4681 16.5186C68.8858 16.2854 69.3829 16.1496 69.9108 16.1496C70.2106 16.1496 70.5028 16.1931 70.7769 16.2751L70.7564 16.27C70.8461 16.5416 70.9409 16.8952 71.0153 17.254L71.0281 17.3206C71.2561 18.3354 71.4483 19.5807 71.5636 20.8492L71.5713 20.9696C71.8814 23.9216 72.0428 27.1247 72.0812 31.0531C72.0915 31.9089 72.1171 32.7674 72.1453 33.6232C72.194 34.3894 72.2196 35.2837 72.2196 36.1857C72.2196 37.8129 72.1299 39.4222 71.9583 41.0033L71.9762 40.8085L71.9736 40.8059ZM36.3446 34.5227C36.6982 34.9147 37.2056 35.1582 37.7719 35.1582C38.3382 35.1582 38.8456 34.9147 39.1967 34.5252L39.1992 34.5227L51.9707 20.37C54.4256 18.2918 55.9708 15.2091 55.9708 11.7651C55.9708 8.74137 54.7767 5.99437 52.8369 3.97256L52.8394 3.97769C50.8535 2.04044 48.1372 0.84375 45.1391 0.84375C42.2973 0.84375 39.7066 1.92 37.7489 3.68556L37.7591 3.67787C35.9167 2.17369 33.5412 1.26144 30.9506 1.26144C30.8429 1.26144 30.7379 1.264 30.6328 1.26656H30.6482C27.7474 1.38444 25.1542 2.61444 23.2682 4.53887L23.2656 4.54144C21.2387 6.512 19.9805 9.26412 19.9805 12.3084C19.9805 15.4884 21.3514 18.3482 23.5347 20.329L23.5449 20.3367L36.3446 34.5227ZM25.9844 7.25256C27.2503 5.94569 29.0107 5.12312 30.9634 5.08725H30.9711C33.1312 5.15644 35.0582 6.10969 36.4087 7.59594L36.4138 7.60106C36.7623 7.94956 37.2415 8.16481 37.7719 8.16481C38.3024 8.16481 38.7841 7.94956 39.1301 7.60106C40.4959 5.80731 42.6304 4.66187 45.0341 4.66187C47.0072 4.66187 48.8009 5.43319 50.1258 6.69394L50.1232 6.69137C51.3814 8.01362 52.1527 9.80737 52.1527 11.7805C52.1527 14.1841 51.0073 16.3187 49.2289 17.6717L49.2109 17.6845L49.1469 17.7562L37.7719 30.3637L26.3304 17.6845C24.7954 16.2854 23.8345 14.2764 23.8319 12.0444C23.9191 10.1584 24.7288 8.47744 25.9844 7.25256Z" fill="#374838"/>
</svg>
