<svg width="181" height="66" viewBox="0 0 181 66" fill="none" xmlns="http://www.w3.org/2000/svg">
<g clip-path="url(#clip0_1339_108)">
<path d="M0 56.4959H2.77127C5.8916 56.4959 7.67917 58.1968 7.67917 61.2061C7.67917 64.2154 5.94448 65.7697 2.76069 65.7697H0V56.4959ZM2.5703 64.0374C4.70693 64.0374 5.76996 63.3309 5.76996 61.1223C5.76996 58.9138 4.7228 58.2073 2.72896 58.2073H1.89335V64.0322H2.56501L2.5703 64.0374Z" fill="#2C2C2C"/>
<path d="M10.2177 56.4959H16.4848V58.2125H12.1164V60.1175H16.2151V61.8446H12.1164V64.0374H16.4848V65.7645H10.2177V56.4907V56.4959Z" fill="#2C2C2C"/>
<path d="M26.9405 56.4959V65.7697H24.989L21.2658 59.7145V65.7697H19.3724V56.4959H21.3081L25.0472 62.5092V56.4959H26.9405Z" fill="#2C2C2C"/>
<path d="M31.9596 58.2125H29.1248V56.4959H36.7088V58.2125H33.8741V65.7697H31.9648V58.2125H31.9596Z" fill="#2C2C2C"/>
<path d="M43.1557 64.027H39.5541L38.893 65.7697H36.8251L40.6541 56.4959H42.0662L45.8688 65.7697H43.8115L43.1504 64.027H43.1557ZM42.5105 62.2999L41.3681 59.2801L40.2099 62.2999H42.5105Z" fill="#2C2C2C"/>
<path d="M47.9578 56.4959H49.8512V64.0374H53.7754V65.7645H47.9525V56.4907L47.9578 56.4959Z" fill="#2C2C2C"/>
<path d="M60.2963 56.4959H62.1897V60.128H66.061V56.4959H67.9543V65.7697H66.061V61.8446H62.1897V65.7697H60.2963V56.4959Z" fill="#2C2C2C"/>
<path d="M73.5022 62.1272L69.9376 56.5011H72.1694L74.4013 60.3321L76.6754 56.5011H78.9231L75.4008 62.1272V65.775H73.5075V62.1272H73.5022Z" fill="#2C2C2C"/>
<path d="M88.4903 60.688V65.7697H87.1576L86.9407 64.8382C86.3643 65.6232 85.3964 65.9948 84.2118 65.9948C81.467 65.9948 79.5736 64.0113 79.5736 61.1642C79.5736 58.3172 81.4299 56.2552 84.2118 56.2552C86.1051 56.2552 87.7235 57.2129 88.4322 59.0237L86.6869 59.7041C86.2849 58.5998 85.3541 58.0398 84.1853 58.0398C82.5194 58.0398 81.4722 59.1441 81.4722 61.1276C81.4722 63.1111 82.6146 64.1997 84.3493 64.1997C85.8037 64.1997 86.597 63.4931 86.597 62.5092V62.3784H84.5397V60.688H88.4903Z" fill="#2C2C2C"/>
<path d="M91.3832 56.4959H93.2765V65.7697H91.3832V56.4959Z" fill="#2C2C2C"/>
<path d="M96.4868 56.4959H102.754V58.2125H98.3855V60.1175H102.484V61.8446H98.3855V64.0374H102.754V65.7645H96.4868V56.4907V56.4959Z" fill="#2C2C2C"/>
<path d="M113.215 56.4959V65.7697H111.263L107.54 59.7145V65.7697H105.647V56.4959H107.582L111.322 62.5092V56.4959H113.215Z" fill="#2C2C2C"/>
<path d="M116.441 56.4959H122.708V58.2125H118.34V60.1175H122.438V61.8446H118.34V64.0374H122.708V65.7645H116.441V56.4907V56.4959Z" fill="#2C2C2C"/>
<path d="M129.023 63.0954L130.906 62.6296C131.011 63.7182 131.725 64.2939 132.735 64.2939C133.555 64.2939 134.132 63.8961 134.132 63.1477C134.132 62.6139 133.677 62.258 132.371 61.7399C130.393 60.9549 129.684 60.2379 129.684 58.851C129.684 57.3333 130.879 56.2709 132.667 56.2709C133.957 56.2709 134.978 56.857 135.57 58.0136L133.999 58.9871C133.703 58.2962 133.19 57.9351 132.614 57.9351C132.037 57.9351 131.577 58.3067 131.577 58.8144C131.577 59.3482 131.979 59.6779 133.365 60.2117C135.369 60.9811 136.025 61.6614 136.025 62.9803C136.025 64.7649 134.613 65.9581 132.704 65.9581C130.795 65.9581 129.303 64.8277 129.018 63.1006L129.023 63.0954Z" fill="#2C2C2C"/>
<path d="M140.198 58.2125H137.363V56.4959H144.947V58.2125H142.112V65.7697H140.203V58.2125H140.198Z" fill="#2C2C2C"/>
<path d="M146.946 62.4203V56.5011H148.839V62.2109C148.839 63.6344 149.215 64.2311 150.585 64.2311C151.955 64.2311 152.346 63.6187 152.346 62.2214V56.5011H154.239V62.3575C154.239 64.7911 152.991 66.0052 150.579 66.0052C148.168 66.0052 146.936 64.8225 146.936 62.4255L146.946 62.4203Z" fill="#2C2C2C"/>
<path d="M157.27 56.4959H160.041C163.161 56.4959 164.949 58.1968 164.949 61.2061C164.949 64.2154 163.214 65.7697 160.03 65.7697H157.275V56.4959H157.27ZM159.835 64.0374C161.971 64.0374 163.034 63.3309 163.034 61.1223C163.034 58.9138 161.987 58.2073 159.993 58.2073H159.158V64.0322H159.829L159.835 64.0374Z" fill="#2C2C2C"/>
<path d="M167.487 56.4959H169.381V65.7697H167.487V56.4959Z" fill="#2C2C2C"/>
<path d="M171.925 61.1433C171.925 58.2177 173.765 56.2761 176.457 56.2761C179.149 56.2761 181 58.2177 181 61.1433C181 64.0688 179.144 66 176.457 66C173.77 66 171.925 64.0427 171.925 61.1433ZM179.091 61.1433C179.091 59.2435 178.07 58.0712 176.457 58.0712C174.844 58.0712 173.823 59.2278 173.823 61.1433C173.823 63.0588 174.86 64.2049 176.457 64.2049C178.054 64.2049 179.091 63.0221 179.091 61.1433Z" fill="#2C2C2C"/>
<path d="M57.8212 2.47546V3.23956C55.1398 3.23956 51.8608 4.12402 46.5616 16.3914L35.302 43.9878H33.9322C18.6691 9.25811 17.8969 8.01777 17.8969 8.01777C15.8713 3.30236 14.3218 3.30236 12.714 3.23956V2.47546H32.1393V3.23956C27.6122 3.23956 30.4099 10.0798 30.4099 10.0798L39.5858 31.4849L45.7841 16.2135C46.6779 14.0311 48.8251 3.23956 40.3632 3.23956V2.47546H57.8212Z" fill="#2C2C2C"/>
<path d="M71.5295 43.9878H57.9429V43.2813C60.2064 42.5747 60.3281 40.0993 60.3281 37.09V23.352C60.3281 21.29 59.6723 20.4631 57.2289 19.4007V18.6366L69.0861 16.2187V37.0952C69.0861 40.34 69.3823 42.6951 71.5295 43.2865V43.993V43.9878ZM64.0777 3.4803C66.7591 3.4803 68.9645 5.60511 68.9645 8.31608C68.9645 11.027 66.7591 13.0943 64.0777 13.0943C61.3964 13.0943 59.191 10.9695 59.191 8.31608C59.191 5.66268 61.3382 3.4803 64.0777 3.4803Z" fill="#2C2C2C"/>
<path d="M105.969 16.7473V17.5114C103.346 17.5114 101.262 18.6314 97.8037 26.8846L90.8914 44.5164H88.7442C83.4978 33.1963 77.3629 20.8713 77.3629 20.8713C75.8133 17.8045 74.0258 17.5689 72.894 17.5114V16.7473H89.2783V17.5114C85.5815 17.5114 88.0249 22.1692 88.0249 22.1692L93.9853 34.3162C93.9853 34.3162 96.4868 28.125 96.9628 26.7067C97.497 25.2936 99.5225 17.5061 93.2078 17.5061V16.7421H105.959L105.969 16.7473Z" fill="#2C2C2C"/>
<path d="M122.951 43.9878H109.365V43.2813C111.628 42.5747 111.75 40.0993 111.75 37.09V23.352C111.75 21.29 111.094 20.4631 108.651 19.4007V18.6366L120.508 16.2187V37.0952C120.508 40.34 120.804 42.6951 122.951 43.2865V43.993V43.9878ZM115.505 3.47507C118.186 3.47507 120.392 5.59988 120.392 8.31085C120.392 11.0218 118.186 13.0891 115.505 13.0891C112.824 13.0891 110.618 10.9642 110.618 8.31085C110.618 5.65745 112.765 3.47507 115.505 3.47507Z" fill="#2C2C2C"/>
<path d="M161.744 43.1033L151.674 44.4588C150.003 44.7519 150.003 43.3964 150.003 43.3964V38.9741C148.575 42.805 143.984 44.5164 140.468 44.5164C132.958 44.5164 127.595 39.5655 127.595 30.2445C127.595 20.9236 133.973 16.2082 142.435 16.2082C146.132 16.2082 148.512 17.0927 150.003 18.3906V6.71985C150.003 4.65784 149.405 3.94608 146.962 3.06161V2.35509L158.703 -0.00523376V38.4978C158.703 41.3867 159.301 42.0357 161.744 42.3288V43.0929V43.1033ZM150.003 26.1205C150.003 19.6938 146.846 16.9828 143.625 16.9828C139.992 16.9828 137.903 19.8141 137.903 29.3077C137.903 37.7965 139.632 41.6327 144.217 41.6327C147.375 41.6327 149.702 39.1572 149.998 36.2055V26.1205H150.003Z" fill="#2C2C2C"/>
</g>
<defs>
<clipPath id="clip0_1339_108">
<rect width="181" height="66" fill="white"/>
</clipPath>
</defs>
</svg>
