<svg width="108" height="70" viewBox="0 0 108 70" fill="none" xmlns="http://www.w3.org/2000/svg">
<path d="M107.296 35.365C105.669 33.5986 103.552 32.3454 101.198 31.5415C98.8656 30.7564 96.2573 30.4033 93.5149 30.4033C92.024 30.4033 90.4764 30.5016 88.9063 30.7168C89.2987 28.4633 89.5141 26.1306 89.5141 23.7788C89.5141 19.6025 88.8496 15.3278 87.338 11.0739L86.8286 9.64496L85.3187 9.76203C78.9284 10.3094 72.9114 12.427 67.578 15.5843C64.97 9.93775 59.2545 2.95677 54.0021 -0.00268555C48.7479 2.95677 43.0304 9.93753 40.4224 15.5843C35.0892 12.427 29.0722 10.3094 22.6819 9.76203L21.172 9.64496L20.6624 11.0739C19.1525 15.3278 18.4864 19.6025 18.4864 23.7788C18.4864 26.1306 18.7015 28.4633 19.0941 30.7168C17.5241 30.5016 15.9764 30.4033 14.4872 30.4033C11.7431 30.4033 9.13486 30.7562 6.80231 31.5415C4.44888 32.3454 2.33128 33.5986 0.704531 35.365L0 36.1277L0.235617 37.1487C3.09698 49.5767 9.01737 57.9657 16.8782 63.0632C24.7387 68.178 34.3451 70.0026 44.6365 70.0026C47.3618 70.0026 50.1455 69.8651 52.9481 69.629C53.0204 69.6463 53.9209 69.6413 54.0017 69.6463C54.0772 69.6413 54.9796 69.6463 55.0517 69.629C57.8542 69.8649 60.6382 70.0026 63.3633 70.0026C73.6566 70.0026 83.261 68.178 91.1235 63.0632C98.9824 57.9657 104.903 49.5765 107.764 37.1487L108 36.1277L107.296 35.365ZM72.2433 36.1674C72.0472 30.4035 71.0296 24.5606 69.0877 19.2479C73.6756 16.4658 78.7714 14.5448 84.1427 13.8576C85.143 17.1904 85.594 20.5047 85.594 23.7788C85.594 26.3852 85.2995 28.9523 84.7899 31.462C84.4767 32.9323 84.0841 34.3837 83.6331 35.8143C82.4367 39.4983 80.7718 43.0294 78.7921 46.2435C75.7932 51.1448 72.1073 55.3572 68.461 58.4958C70.7354 53.4379 72.0092 47.1646 72.2244 40.6175C72.2638 39.8721 72.283 39.1283 72.283 38.3829C72.283 37.6583 72.2638 36.9126 72.2433 36.1674ZM23.8572 13.8576C29.2283 14.5446 34.3244 16.4658 38.9123 19.2479C36.9704 24.5606 35.953 30.4035 35.7566 36.1674C35.736 36.9126 35.717 37.6583 35.717 38.3829C35.717 39.1283 35.736 39.8721 35.7756 40.6175C35.9908 47.1646 37.2648 53.4379 39.5407 58.4958C35.8927 55.3574 32.207 51.1448 29.2079 46.2435C27.2282 43.0294 25.5633 39.4983 24.3669 35.8143C23.9159 34.3837 23.5233 32.9323 23.2101 31.462C22.7005 28.9521 22.406 26.3852 22.406 23.7788C22.406 20.5047 22.8572 17.1906 23.8572 13.8576ZM19.0162 59.7681C12.2901 55.3798 7.11513 48.399 4.3122 37.3242C5.33145 36.4427 6.58484 35.7542 8.05507 35.2654C9.89887 34.6387 12.0766 34.3255 14.4868 34.3255C16.2325 34.3255 18.0934 34.482 20.0148 34.8349C22.0531 42.4616 26.0126 49.3407 30.5423 54.867C33.8941 58.9263 37.5386 62.2595 41.1073 64.6127C41.9302 65.1603 42.7549 65.651 43.5588 66.0642C34.1489 65.945 25.72 64.1599 19.0162 59.7681ZM59.9721 63.7293C59.9136 63.7673 59.855 63.8276 59.7966 63.8673C58.5811 64.7882 57.2866 65.3753 55.8748 65.6303C55.7784 65.651 55.6993 65.651 55.601 65.6717H55.5236C55.4443 65.6904 55.3462 65.6904 55.2481 65.7096C55.2481 65.7096 55.2481 65.7096 55.2274 65.7096C55.095 65.7197 54.1394 65.7269 54.0017 65.7337C53.8637 65.7269 52.9067 65.7197 52.7723 65.7096C52.7536 65.7096 52.7536 65.7096 52.7536 65.7096C52.6536 65.6906 52.5555 65.6906 52.4762 65.6717H52.3988C52.3005 65.651 52.2233 65.651 52.125 65.6303C50.7134 65.3755 49.4203 64.7882 48.2032 63.8673C48.1446 63.8276 48.0878 63.7673 48.0277 63.7293C45.5178 61.7497 43.3622 58.2222 41.892 53.7514C40.8523 50.6147 40.1669 47.0269 39.8537 43.2429C39.7159 41.6558 39.6366 40.0476 39.6366 38.4021V38.3831C39.6366 32.6589 40.5011 26.7782 42.2639 21.5032C42.5583 20.6217 42.8733 19.7782 43.2055 18.9553C43.3812 18.5438 43.5584 18.1325 43.7548 17.7209C45.9291 12.8405 50.0004 7.60351 54.0015 5.0364C57.9987 7.6033 62.0703 12.8402 64.2446 17.7209C64.4408 18.1325 64.6182 18.5438 64.7937 18.9553C65.1278 19.7782 65.441 20.6217 65.7353 21.5032C67.4981 26.7782 68.3625 32.6589 68.3625 38.3831V38.4021C68.3625 40.0478 68.2832 41.6558 68.1455 43.2429C67.8322 47.0269 67.1471 50.6147 66.1074 53.7514C64.6376 58.2222 62.482 61.7497 59.9721 63.7293ZM88.9838 59.7681C82.2802 64.1599 73.8511 65.945 64.4412 66.064C65.247 65.6508 66.0698 65.1601 66.8927 64.6125C70.4616 62.2593 74.1061 58.9263 77.4577 54.8668C81.9874 49.3405 85.9469 42.4611 87.9852 34.8347C89.9064 34.4818 91.7673 34.3253 93.5147 34.3253C95.9249 34.3253 98.1009 34.6385 99.9447 35.2652C101.415 35.754 102.668 36.4427 103.687 37.324C100.885 48.399 95.7097 55.3798 88.9838 59.7681Z" fill="#374838"/>
</svg>
