<svg width="54" height="72" viewBox="0 0 54 72" fill="none" xmlns="http://www.w3.org/2000/svg">
<path d="M29.2279 23.9671V59.6041M29.2279 23.9671V11.6797C29.2279 10.9108 29.2279 10.5264 29.3565 10.1992C29.47 9.91036 29.6543 9.65464 29.8924 9.45554C30.1624 9.23003 30.5269 9.10843 31.2563 8.86528L47.573 3.42642C48.8913 2.98698 49.5506 2.76722 50.0754 2.89898C50.5345 3.01431 50.9324 3.301 51.1871 3.70024C51.4779 4.15636 51.4779 4.85119 51.4779 6.24082V18.5282C51.4779 19.2971 51.4779 19.6816 51.3492 20.0087C51.2357 20.2976 51.0514 20.5533 50.8133 20.7524C50.5434 20.9779 50.1788 21.0995 49.4494 21.3426L33.1327 26.7815C31.8144 27.221 31.1551 27.4407 30.6304 27.309C30.1713 27.1936 29.7734 26.907 29.5186 26.5077C29.2279 26.0516 29.2279 25.3568 29.2279 23.9671ZM29.2279 59.6041C29.2279 64.7242 23.4169 68.875 16.2487 68.875C9.08049 68.875 3.26953 64.7242 3.26953 59.6041C3.26953 54.4837 9.08049 50.3333 16.2487 50.3333C23.4169 50.3333 29.2279 54.4837 29.2279 59.6041Z" stroke="#374838" stroke-width="5" stroke-linecap="round" stroke-linejoin="round"/>
</svg>
