<svg width="73" height="73" viewBox="0 0 73 73" fill="none" xmlns="http://www.w3.org/2000/svg">
<path d="M38.3542 17.5634V12.6799C38.3542 11.911 38.3542 11.5266 38.4828 11.1995C38.5963 10.9106 38.7806 10.6548 39.0187 10.4557C39.2887 10.2302 39.6532 10.1086 40.3826 9.86549L56.6993 4.42659C58.0176 3.98715 58.6769 3.76743 59.2017 3.89919C59.6608 4.01452 60.0587 4.30121 60.3134 4.70045C60.6042 5.15654 60.6042 5.85137 60.6042 7.24103V19.5284C60.6042 20.2973 60.6042 20.6818 60.4755 21.0089C60.362 21.2978 60.1777 21.5535 59.9396 21.7526C59.6697 21.9781 59.3051 22.0997 58.5757 22.3428L46.9545 26.2165M38.3542 38.3542V60.6042M38.3542 60.6042C38.3542 65.7243 32.5432 69.875 25.375 69.875C18.2068 69.875 12.3958 65.7243 12.3958 60.6042C12.3958 55.4841 18.2068 51.3333 25.375 51.3333C32.5432 51.3333 38.3542 55.4841 38.3542 60.6042ZM3.125 3.125L69.875 69.875" stroke="#374838" stroke-width="5" stroke-linecap="round" stroke-linejoin="round"/>
</svg>
